<svg width="200" height="9" viewBox="0 0 200 9" fill="none" xmlns="http://www.w3.org/2000/svg">
<path d="M94.5833 0.216384C92.9268 0.685212 91.0515 1.8104 88.7074 3.76385C88.2073 4.17017 87.7384 4.51397 87.6759 4.51397C87.5978 4.51397 87.504 4.06077 87.4728 3.51381C87.3634 2.31048 86.8789 1.32594 86.1132 0.810233C85.113 0.122619 83.4096 0.466426 82.8001 1.45096C82.4251 2.06044 82.4251 2.59178 82.8001 3.15437C83.2846 3.9045 83.6909 4.09203 84.5504 3.98264C84.9724 3.92012 85.3162 3.92012 85.3162 3.96701C85.3162 4.01389 85.2068 4.26393 85.0818 4.49835C84.5035 5.63916 82.9564 6.23301 81.378 5.93608C80.0028 5.68604 78.7995 5.1547 78.0337 4.46709C77.393 3.87324 77.2992 3.71697 77.2367 3.01372C77.1586 2.29485 77.1898 2.18546 77.5805 1.88854C78.1587 1.43534 78.9714 1.43534 79.2995 1.88854C79.4246 2.0917 79.5808 2.51364 79.6434 2.84182C79.7371 3.51381 79.8778 3.63883 80.3153 3.49818C80.5654 3.42004 80.6279 3.26377 80.6279 2.62303C80.6279 1.73226 80.3466 1.09153 79.7527 0.622702C79.4246 0.37266 79.112 0.294522 78.3306 0.294522C77.4242 0.294522 77.268 0.341405 76.8773 0.747723C76.596 1.02902 76.3147 1.56036 76.1584 2.15421C76.0021 2.66992 75.799 3.10749 75.6896 3.10749C75.5958 3.10749 74.5488 2.62303 73.3923 2.02919C69.7042 0.169502 70.2043 0.232012 59.6088 0.232012C50.9355 0.247639 50.4823 0.263267 49.1383 0.575819C47.4974 0.966509 45.7471 1.56036 43.3561 2.52927C41.6527 3.23251 39.7774 3.71697 39.5742 3.51381C39.4335 3.38879 39.6992 2.93559 40.0118 2.76368C40.1368 2.70117 40.4962 2.5449 40.8244 2.41988C41.3245 2.21672 41.4026 2.12295 41.4026 1.70101C41.4026 1.34157 41.3089 1.1853 41.0588 1.09153C40.2931 0.810233 39.0897 1.49785 37.9646 2.85745C37.3707 3.59195 37.1988 3.70134 36.8706 3.6232C36.183 3.46692 35.136 2.96684 34.6515 2.56052C34.4015 2.34174 34.0733 2.16983 33.917 2.16983C33.7607 2.16983 33.3232 2.48239 32.9168 2.87308L32.198 3.59195L18.0863 3.54506C3.53696 3.49818 1.89607 3.54506 0.505211 4.13891C-0.0417545 4.3577 -0.166775 4.73276 0.239542 4.88904C0.380191 4.93592 6.55309 4.9828 13.9606 4.9828C21.3837 4.9828 28.5255 5.02968 29.8538 5.07657L32.2605 5.18596L32.8231 5.77981C33.1356 6.12362 33.5263 6.38928 33.6826 6.38928C33.8545 6.38928 34.2452 6.1705 34.5577 5.92046C35.3547 5.2641 36.3705 4.82653 37.1363 4.82653C37.7458 4.82653 37.8239 4.88904 38.2927 5.54539C39.8242 7.78014 43.4342 7.51447 49.6227 4.7015C51.5762 3.82636 52.1075 3.68571 53.1546 3.82636L53.9047 3.93575L53.5609 4.49835C52.8108 5.68604 53.264 7.65512 54.3735 8.10832C54.7642 8.28022 54.9674 8.2646 55.53 8.04581C56.8114 7.56135 57.1865 6.3424 56.4989 4.93592C56.2801 4.46709 56.0926 3.98264 56.0926 3.84199C56.0926 3.48255 57.4053 2.5449 58.3429 2.23234C59.4681 1.85728 61.1715 1.99793 62.6562 2.59178C64.0626 3.17 64.2189 3.48255 63.25 3.73259C61.1559 4.26393 60.312 4.9828 60.312 6.23301C60.312 7.2488 61.3747 8.2646 62.4217 8.2646C63.3438 8.2646 64.4533 7.48322 64.3439 6.905C64.2814 6.60807 64.0001 6.57682 62.6249 6.77997C61.9217 6.88937 61.8904 6.87374 61.781 6.48305C61.656 5.93608 62.1092 5.17033 62.8124 4.8109C63.8439 4.2483 65.1566 4.46709 68.4852 5.70167C70.9388 6.6237 74.5019 7.67075 76.5647 8.10832C81.925 9.20225 85.0036 8.31148 89.9263 4.20142C92.9268 1.70101 94.1145 1.15404 96.2555 1.27906C98.584 1.40408 99.9436 2.32611 98.459 2.76368C97.6463 3.01372 97.1463 3.43567 96.4274 4.49835C95.5679 5.76418 94.8021 6.38928 94.1458 6.38928C93.5519 6.38928 93.4269 6.20175 93.63 5.52977C93.927 4.49835 93.38 3.73259 92.3798 3.73259C91.364 3.73259 90.7858 4.42021 90.7858 5.63916C90.8015 7.20192 92.036 8.2646 93.8645 8.2646C94.8959 8.2646 96.3961 7.85828 97.3025 7.32694L97.8026 7.03002L99.0216 7.57698C99.6936 7.85828 100.397 8.10832 100.584 8.10832C100.772 8.10832 101.397 7.87391 101.96 7.57698L102.991 7.04564L104.116 7.5301C106.257 8.4365 108.664 8.2646 109.601 7.15504C110.539 6.04548 110.477 4.48272 109.492 3.88887C108.179 3.09186 107.039 4.0764 107.46 5.63916C107.617 6.23301 107.617 6.23301 107.164 6.23301C106.507 6.23301 106.179 6.01422 104.819 4.73276C103.85 3.81073 102.96 3.13874 101.756 2.38862C101.725 2.35737 101.741 2.20109 101.803 2.01356C101.96 1.5291 103.038 1.0759 104.101 1.0759C105.773 1.0759 107.695 2.06044 111.227 4.73276C114.024 6.84249 114.618 7.18629 116.978 8.03018C118.337 8.53027 118.634 8.57715 120.15 8.57715C124.229 8.57715 127.167 7.88953 134.778 5.13908C136.575 4.49835 137.637 4.43584 138.2 4.96717C138.653 5.40475 138.747 6.13924 138.387 6.63933C138.216 6.87374 137.966 6.93625 137.247 6.93625C136.481 6.93625 136.34 6.98313 136.293 7.23318C136.2 7.702 136.7 7.95204 137.653 7.95204C139.622 7.95204 140.591 6.31115 139.513 4.77964C139.122 4.23268 138.45 3.88887 137.356 3.65446L136.497 3.48255L137.278 2.98247C139.763 1.37283 142.888 1.27906 144.545 2.76368L145.217 3.35753L144.639 3.9045C144.31 4.20142 143.951 4.62337 143.826 4.85778C143.529 5.436 143.545 6.48305 143.873 7.03002C144.138 7.48322 144.92 7.95204 145.404 7.95204C145.779 7.95204 146.451 7.56135 146.889 7.09253C147.248 6.70184 147.28 6.56119 147.264 5.27973C147.233 3.9045 147.248 3.88887 147.608 3.88887C148.202 3.88887 149.827 4.48272 151.03 5.12345C152.906 6.13924 154.203 6.56119 156.265 6.85811C158.438 7.17066 160.813 6.51431 161.954 5.31098C162.61 4.63899 163.204 4.67025 164.532 5.45163C165.111 5.79544 165.783 6.07673 166.017 6.07673C166.251 6.07673 166.892 5.79544 167.455 5.46726C168.252 4.9828 168.705 4.82653 169.518 4.73276C170.096 4.67025 177.16 4.65462 185.208 4.7015L199.866 4.77964L199.96 4.2483C200.023 3.95138 200.007 3.67008 199.945 3.60757C199.882 3.54506 193.287 3.49818 185.286 3.49818C170.268 3.49818 168.893 3.4513 167.314 2.85745C166.064 2.38862 165.689 2.38862 165.001 2.93559C164.173 3.60757 163.36 3.93575 162.907 3.77948C162.704 3.71697 162.313 3.29502 162.016 2.87308C161.329 1.82603 160.594 1.46659 159.141 1.46659C157.969 1.46659 157.516 1.66975 157.516 2.18546C157.516 2.46676 157.609 2.48239 158.61 2.38862C159.829 2.2636 160.485 2.45113 160.876 3.04498C161.188 3.54506 161.173 3.84199 160.797 3.96701C160.235 4.13891 158.219 3.74822 156.422 3.10749C151.14 1.21655 145.217 0.232012 138.997 0.232012C133.387 0.216384 130.792 0.70084 127.011 2.49801C125.542 3.18563 124.604 3.54506 124.51 3.4513C124.432 3.37316 124.307 2.91996 124.245 2.4355C124.182 1.96668 124.01 1.40408 123.885 1.20092C123.494 0.607074 122.588 0.247639 121.76 0.341405C120.9 0.435171 120.338 0.841488 119.947 1.62287C119.603 2.32611 119.744 2.68554 120.369 2.76368C120.713 2.81057 120.853 2.70117 121.119 2.24797C121.588 1.45096 121.916 1.32594 122.416 1.71663C123.119 2.27923 123.229 3.57632 122.619 4.37332C122.385 4.68588 120.791 5.7173 120.213 5.93608C117.806 6.84249 115.196 6.01422 114.774 4.18579L114.665 3.76385L115.837 3.7951C117.29 3.81073 117.665 3.56069 117.665 2.5449C117.665 1.76352 117.118 0.997764 116.306 0.669585C114.602 -0.0492848 113.024 1.12278 112.743 3.3419C112.68 3.84199 112.571 4.20142 112.461 4.20142C112.243 4.20142 111.508 3.70134 109.773 2.40425C108.273 1.27906 106.679 0.528936 105.148 0.200757C103.679 -0.0961676 103.038 -0.00240206 101.444 0.810233L100.147 1.46659L99.6467 1.16967C97.6932 0.0288531 96.2242 -0.252444 94.5833 0.216384ZM56.7177 1.60724C56.7177 1.90416 56.5301 2.0917 55.8738 2.46676C54.9518 2.9981 54.3892 3.06061 52.9045 2.77931C51.4981 2.52927 49.4196 3.06061 45.3095 4.76401C43.7936 5.38912 43.3092 5.51414 42.2465 5.57665C41.4964 5.62353 40.7463 5.57665 40.4181 5.46726C39.8399 5.27973 39.4179 4.88904 39.5742 4.71713C39.6367 4.67025 40.3556 4.46709 41.1995 4.26393C42.0434 4.06077 44.0124 3.46692 45.5596 2.95121C49.5759 1.6385 51.5293 1.24781 54.4204 1.24781L56.7177 1.23218V1.60724ZM68.2821 1.48222C70.3449 1.87291 72.064 2.56052 75.502 4.37332C79.8465 6.65495 80.0966 6.76435 81.6906 6.73309C82.3938 6.73309 83.1283 6.67058 83.2846 6.6237C83.6909 6.49868 83.6909 6.7956 83.2846 7.01439C83.1127 7.10815 82.4094 7.26443 81.7218 7.3582C78.8932 7.74889 76.0334 6.98313 69.5636 4.06077C67.8289 3.27939 65.8129 2.45113 65.1097 2.23234C63.6094 1.76352 63.4063 1.66975 63.3125 1.41971C63.2187 1.13841 66.7193 1.1853 68.2821 1.48222ZM136.731 1.5291C136.731 1.71663 136.59 1.87291 136.387 1.95105C136.184 1.99793 134.199 2.85745 131.965 3.84199C126.792 6.13924 126.042 6.43617 124.229 6.905C122.244 7.43633 121.525 7.5301 120.791 7.40508C119.9 7.2488 120.009 6.95188 121.088 6.54556C121.603 6.35803 122.494 5.92046 123.088 5.57665C125.51 4.15454 129.12 2.48239 131.027 1.90416C132.34 1.49785 133.918 1.26343 135.371 1.24781C136.622 1.23218 136.731 1.26343 136.731 1.5291ZM147.592 1.54473C149.467 1.77914 152.171 2.46676 154.89 3.42004C156.125 3.85761 157.797 4.31081 158.61 4.45146C160.266 4.73276 160.766 5.01406 160.25 5.38912C159.86 5.68604 158.985 5.92046 158.297 5.92046C157.469 5.92046 156.328 5.59228 153.452 4.51397C150.608 3.4513 148.749 2.95121 147.623 2.95121C146.686 2.95121 145.951 2.65429 145.514 2.0917C145.014 1.46659 145.076 1.23218 145.686 1.31032C145.951 1.3572 146.826 1.45096 147.592 1.54473ZM166.455 3.84199C166.814 4.17017 166.814 4.46709 166.423 4.67025C166.048 4.87341 165.329 4.71713 165.329 4.42021C165.329 4.20142 165.861 3.57632 166.064 3.57632C166.111 3.57632 166.298 3.68571 166.455 3.84199ZM34.7609 4.10766C35.0109 4.29519 35.0266 4.3577 34.8547 4.57648C34.589 4.88904 33.8389 4.90466 33.5888 4.59211C33.1513 4.06077 34.1358 3.63883 34.7609 4.10766ZM146.029 4.68588C146.201 5.20159 145.967 6.06111 145.623 6.24864C145.092 6.52993 144.857 6.31115 144.857 5.54539C144.857 4.99843 144.935 4.79527 145.201 4.60774C145.67 4.26393 145.904 4.29519 146.029 4.68588ZM55.3112 5.1547C55.405 5.31098 55.4675 5.68604 55.4675 5.98297C55.4675 6.46742 55.4206 6.54556 55.0924 6.54556C54.7486 6.54556 54.6861 6.4518 54.5923 5.84232C54.5454 5.45163 54.5298 5.04531 54.5923 4.90466C54.7017 4.62337 55.108 4.76401 55.3112 5.1547Z" fill="#CAB387"/>
</svg>
